<svg xmlns="http://www.w3.org/2000/svg" width="24" height="24" viewBox="0 0 24 24" fill="none">
  <path d="M3.70313 4.01252C3.28595 4.07814 3.02345 4.15783 2.67188 4.32189C2.10938 4.59377 1.58907 5.1094 1.32188 5.6719C0.989072 6.37502 1.00782 6.0094 1.00782 12C1.00782 17.9906 0.989072 17.625 1.32188 18.3281C1.66876 19.0547 2.39063 19.65 3.23438 19.9078C3.46876 19.9828 3.97032 19.9922 8.54532 20.0016C14.0906 20.0203 13.8094 20.0344 13.9781 19.7438C14.0484 19.6313 14.0531 19.5094 14.0297 18.8625C14.0109 18.3703 14.0203 17.9766 14.0578 17.7235C14.3016 16.05 15.3047 14.5688 16.7531 13.7391C18.3797 12.8063 20.3438 12.7641 22.0313 13.6172C22.3125 13.7578 22.5188 13.7672 22.725 13.6406C23.0297 13.4531 23.0203 13.5656 23.0016 9.85315C22.9828 6.1219 23.0016 6.32346 22.6594 5.62971C22.4156 5.13752 21.8578 4.57971 21.375 4.34064C20.6391 3.97971 21.4734 4.01252 12.1641 4.00314C7.57501 3.99846 3.76876 4.00314 3.70313 4.01252ZM5.46095 6.62346C5.56407 6.6844 6.94688 7.75315 8.53126 9.00002C10.1156 10.2469 11.4891 11.3063 11.5781 11.3531C11.7703 11.4563 12.1734 11.4656 12.3891 11.3719C12.4734 11.3391 13.8563 10.2703 15.4688 9.00471C17.0813 7.7344 18.4781 6.65627 18.5719 6.60471C18.8953 6.44065 19.4109 6.51096 19.6781 6.76408C19.8656 6.93752 19.9828 7.21877 19.9875 7.50002C19.9922 8.00627 20.0719 7.93127 16.7344 10.5563C13.5094 13.0969 13.2938 13.2422 12.6328 13.3828C11.9859 13.5188 11.3297 13.4438 10.7297 13.1672C10.4859 13.0547 9.65157 12.4219 7.32657 10.5985C3.92813 7.92658 4.00782 8.00627 4.01251 7.50002C4.01251 7.21877 4.1297 6.94221 4.32188 6.76408C4.60313 6.50158 5.13282 6.43596 5.46095 6.62346Z" fill="#E1E0FF" fill-opacity="0.85"/>
  <path d="M19.125 15.075C18.9141 15.1688 18.7172 15.3516 18.6047 15.5719C18.525 15.7266 18.5156 15.8531 18.5156 16.6172V17.4844H17.7281C16.8 17.4844 16.575 17.5359 16.3031 17.7984C15.8156 18.2719 15.9422 19.0734 16.5516 19.3781C16.7906 19.4953 16.8234 19.5 17.6531 19.5H18.5109L18.525 20.4281C18.5391 21.3328 18.5438 21.3656 18.6563 21.5297C18.7219 21.6281 18.8578 21.7641 18.9563 21.8344C19.1203 21.9469 19.1859 21.9609 19.5 21.9609C19.8141 21.9609 19.8797 21.9469 20.0438 21.8344C20.1422 21.7641 20.2781 21.6281 20.3438 21.5297C20.4563 21.3656 20.4609 21.3328 20.475 20.4281L20.4891 19.5H21.3469C22.1719 19.5 22.2094 19.4953 22.4484 19.3781C23.0672 19.0688 23.1844 18.3047 22.6922 17.8125C22.4063 17.5266 22.2281 17.4844 21.2625 17.4844H20.4844V16.6172C20.4844 15.8531 20.475 15.7266 20.3953 15.5719C20.1469 15.0938 19.5891 14.8734 19.125 15.075Z" fill="#E1E0FF" fill-opacity="0.85"/>
</svg>